<?xml version="1.0" encoding="utf-8"?>
<!-- Generator: Adobe Illustrator 15.0.1, SVG Export Plug-In . SVG Version: 6.00 Build 0)  -->
<!DOCTYPE svg PUBLIC "-//W3C//DTD SVG 1.1//EN" "http://www.w3.org/Graphics/SVG/1.1/DTD/svg11.dtd">
<svg version="1.1" id="Layer_1" xmlns="http://www.w3.org/2000/svg" xmlns:xlink="http://www.w3.org/1999/xlink" x="0px" y="0px"
	 width="168.264px" height="127.38px" viewBox="0 0 168.264 127.38" enable-background="new 0 0 168.264 127.38"
	 xml:space="preserve">
<path d="M63.937,0v10.122c-14.482,7.57-24.85,15.469-31.104,23.698c-6.258,8.232-9.38,17.198-9.38,26.908
	c0,5.764,0.822,9.714,2.468,11.85c1.48,2.308,3.292,3.456,5.431,3.456c2.136,0,5.02-0.617,8.641-1.851
	c3.616-1.234,6.912-1.852,9.874-1.852c6.748,0,12.626,2.511,17.65,7.529c5.02,5.024,7.529,11.149,7.529,18.392
	c0,7.899-3.048,14.688-9.134,20.366c-6.089,5.678-13.664,8.517-22.711,8.517c-11.025,0-20.983-4.773-29.87-14.318
	C4.443,103.274,0,91.503,0,77.514C0,61.06,5.468,45.709,16.416,31.475C27.36,17.243,43.2,6.751,63.937,0z M156.415,0.74v9.381
	c-16.631,9.545-27.569,18.107-32.837,25.673c-5.27,7.571-7.898,16.458-7.898,26.661c0,4.608,0.9,8.064,2.715,10.369
	c1.811,2.308,3.703,3.456,5.679,3.456c1.81,0,4.524-0.655,8.146-1.975c3.617-1.316,7.241-1.975,10.862-1.975
	c6.747,0,12.626,2.432,17.646,7.283c5.02,4.854,7.538,10.824,7.538,17.896c0,8.064-3.177,15.059-9.513,20.982
	c-6.332,5.926-14.108,8.889-23.324,8.889c-10.861,0-20.654-4.69-29.377-14.072c-8.726-9.381-13.082-21.064-13.082-35.053
	c0-17.28,5.513-33.039,16.539-47.274C120.529,16.75,136.167,6.665,156.415,0.74z"/>
</svg>
