<?xml version="1.0" encoding="utf-8"?>
<!-- Generator: Adobe Illustrator 15.0.1, SVG Export Plug-In . SVG Version: 6.00 Build 0)  -->
<!DOCTYPE svg PUBLIC "-//W3C//DTD SVG 1.1//EN" "http://www.w3.org/Graphics/SVG/1.1/DTD/svg11.dtd">
<svg version="1.1" id="Layer_1" xmlns="http://www.w3.org/2000/svg" xmlns:xlink="http://www.w3.org/1999/xlink" x="0px" y="0px"
	 width="448.578px" height="293.887px" viewBox="0 0 448.578 293.887" enable-background="new 0 0 448.578 293.887"
	 xml:space="preserve">
<g>
	<path fill="#FFFFFF" d="M299.869,130.269c3.445,0,6.186,2.657,6.186,6.049c0,3.395-2.74,6.088-6.222,6.088
		c-3.482,0-6.261-2.693-6.261-6.088c0-3.392,2.778-6.049,6.261-6.049H299.869z M299.795,131.491c-2.628,0-4.667,2.173-4.667,4.827
		c0,2.693,2.039,4.834,4.741,4.834c2.63,0.037,4.633-2.141,4.633-4.796c0-2.692-2.003-4.865-4.669-4.865H299.795z M298.87,139.456
		h-1.408v-6.049c0.557-0.074,1.336-0.185,2.333-0.185c1.149,0,1.668,0.185,2.076,0.479c0.368,0.258,0.628,0.699,0.628,1.291
		c0,0.736-0.555,1.217-1.258,1.437v0.074c0.593,0.184,0.889,0.664,1.075,1.476c0.183,0.923,0.331,1.253,0.443,1.477h-1.482
		c-0.185-0.224-0.297-0.741-0.48-1.477c-0.111-0.629-0.482-0.921-1.261-0.921h-0.666V139.456z M298.906,136.063h0.667
		c0.778,0,1.407-0.261,1.407-0.887c0-0.55-0.407-0.922-1.296-0.922c-0.372,0-0.63,0.038-0.778,0.073V136.063z"/>
	<polygon fill="#FFFFFF" points="211.977,0.002 209.651,0 171.039,74.994 106.15,35.219 102.297,35.093 135.389,137.624 
		157.798,134.583 138.375,77.459 181.668,102.613 189.58,86.359 189.565,86.35 210.562,44.581 228.29,81.444 247.215,70.412 	"/>
	<polygon fill="#FFFFFF" points="314.548,35.22 210.35,98.526 194.768,89.423 187.062,105.749 209.029,118.512 210.35,118.512 
		211.672,118.512 282.324,77.459 262.902,134.583 285.31,137.624 318.403,35.094 	"/>
	<polygon fill="#FFFFFF" points="55.01,206.56 3.745,159.649 0,159.649 0,241.25 16.441,241.25 16.441,191.999 53.686,226.035 
		56.168,226.035 91.543,192.143 91.543,241.25 107.985,241.25 107.985,159.649 104.218,159.649 	"/>
	<rect x="128.234" y="160.876" fill="#FFFFFF" width="16.443" height="80.374"/>
	<path fill="#FFFFFF" d="M208.272,158.543l-55.567,82.707h17.589l9.941-14.848h59.341l10.183,14.848h18.234l-56.726-82.707H208.272z
		 M229.848,212.292h-40.183l19.882-29.565L229.848,212.292z"/>
	<polygon fill="#FFFFFF" points="329.766,206.56 278.5,159.649 274.755,159.649 274.755,241.25 291.197,241.25 291.197,191.999 
		328.438,226.035 330.922,226.035 366.298,192.143 366.298,241.25 382.741,241.25 382.741,159.649 378.975,159.649 	"/>
	<rect x="402.989" y="160.876" fill="#FFFFFF" width="16.443" height="80.374"/>
	<path fill="#FFFFFF" d="M23.265,293.887c-13.142,0-22.466-5.511-22.466-15.269c0-9.809,9.954-15.703,22.176-15.703
		c9.276,0,13.818,1.74,15.606,2.417v3.574l-0.192,0.146c-2.272-1.549-6.426-3.865-15.269-3.865
		c-10.386,0-17.731,4.444-17.731,13.432c0,8.647,6.33,12.996,17.876,12.996c7.973,0,11.983-2.077,15.992-5.218l0.242,0.098v3.817
		C37.375,291.52,32.01,293.887,23.265,293.887"/>
	<path fill="#FFFFFF" d="M64.96,293.886c-11.306,0-21.645-5.072-21.645-15.365c0-10.725,10.869-15.605,21.645-15.605
		c10.726,0,21.645,4.783,21.645,15.511C86.605,288.716,76.264,293.886,64.96,293.886 M64.863,291.615
		c10.871,0,17.153-4.783,17.153-13.094c0-8.358-6.62-13.334-17.153-13.334s-16.958,4.881-16.958,13.239
		C47.905,286.737,54.042,291.615,64.863,291.615"/>
	<path fill="#FFFFFF" d="M93.366,263.302h3.769c8.794,8.264,19.614,17.925,28.456,25.704c0.097-6.813,0.097-19.325,0-25.56
		l0.193-0.145h2.416l0.194,0.195c-0.194,8.645-0.194,20.675,0,29.76l-0.242,0.195h-3.575c-7.586-7.345-20.05-18.507-28.604-25.996
		c-0.094,6.039-0.144,18.314,0,25.852l-0.191,0.145h-2.466l-0.143-0.145c0.143-7.443,0.143-22.855,0-29.861L93.366,263.302z"/>
	<path fill="#FFFFFF" d="M136.896,293.358c0.191-9.28,0.191-22.616,0-29.621l0.191-0.192c3.72-0.145,6.911-0.629,15.414-0.629
		c12.321,0,23.191,5.075,23.191,15.8c0,9.567-10.531,15.172-23.191,15.172c-7.537,0-11.983-0.435-15.414-0.388L136.896,293.358z
		 M141.002,290.989c2.607,0.239,4.156,0.674,10.822,0.674c13.142,0,19.278-4.831,19.278-12.853c0-8.792-6.475-13.623-19.518-13.623
		c-5.122,0-7.586,0.435-10.582,0.869C140.856,270.987,140.903,282.823,141.002,290.989"/>
	<path fill="#FFFFFF" d="M201.974,293.886c-11.306,0-21.645-5.072-21.645-15.365c0-10.725,10.869-15.605,21.645-15.605
		c10.726,0,21.646,4.783,21.646,15.511C223.619,288.716,213.278,293.886,201.974,293.886 M201.877,291.615
		c10.87,0,17.152-4.783,17.152-13.094c0-8.358-6.621-13.334-17.152-13.334c-10.534,0-16.96,4.881-16.96,13.239
		C184.917,286.737,191.054,291.615,201.877,291.615"/>
	<path fill="#FFFFFF" d="M247.917,293.453h-3.818l-0.144-0.095c0.193-9.28,0.193-22.953,0-29.911l0.193-0.145h3.769l0.192,0.195
		c-0.146,4.685-0.192,10.869-0.192,17.15c9.903-6.476,17.104-11.983,24.256-17.346h5.41l0.096,0.195
		c-5.267,3.138-11.69,7.439-18.359,12.078c5.555,5.119,13.19,11.933,20.342,17.682l-0.146,0.195h-5.751
		c-6.569-6.281-11.546-10.63-17.681-15.605l-8.166,5.699c0.047,3.43,0.095,6.766,0.192,9.761L247.917,293.453z"/>
	<path fill="#FFFFFF" d="M284.877,293.308c0.192-9.277,0.192-22.855,0-29.811l0.145-0.195h3.816l0.192,0.145
		c-0.192,10.436-0.146,20.1-0.048,29.861l-0.193,0.145h-3.768L284.877,293.308z"/>
	<path fill="#FFFFFF" d="M297.967,263.302h3.769c8.793,8.264,19.616,17.925,28.459,25.704c0.098-6.813,0.098-19.325,0-25.56
		l0.193-0.145h2.415l0.192,0.195c-0.192,8.645-0.192,20.675,0,29.76l-0.242,0.195h-3.573c-7.585-7.345-20.051-18.507-28.604-25.996
		c-0.098,6.039-0.144,18.314,0,25.852l-0.192,0.145h-2.466l-0.143-0.145c0.143-7.443,0.143-22.855,0-29.861L297.967,263.302z"/>
	<path fill="#FFFFFF" d="M361.742,293.887c-12.997,0-22.177-5.413-22.177-15.319c0-9.566,10.098-15.652,21.981-15.652
		c9.906,0,14.543,1.692,16.334,2.464v4.012l-0.195,0.095c-2.172-1.834-6.137-4.299-15.992-4.299
		c-10.533,0-17.538,4.494-17.538,13.381c0,8.99,6.038,13.047,17.587,13.047c6.087,0,9.758-1.11,13.188-2.414
		c0.1-3.43,0.1-5.362-0.047-10.485l0.194-0.194h3.768l0.194,0.145c-0.194,4.928-0.194,7.685,0,12.128
		C374.256,292.678,369.375,293.887,361.742,293.887"/>
	<path fill="#FFFFFF" d="M409.717,280.019c-4.688-0.771-11.888-0.095-18.215-1.546c-4.3-0.966-6.572-3.188-6.572-6.86
		c0-5.217,5.027-8.698,16.092-8.698c8.938,0,13.286,1.839,15.024,2.802v3.527l-0.242,0.098c-2.028-1.689-6.378-4.154-15.026-4.154
		c-10.098,0-12.561,2.946-12.561,5.699c0,2.465,1.643,3.867,4.83,4.494c4.88,0.969,11.741,0.435,17.491,1.259
		c5.025,0.724,8.02,2.753,8.02,6.907c0,5.847-5.362,10.341-17.877,10.341c-9.035,0-14.349-2.128-16.475-3.528v-3.914l0.193-0.095
		c3.526,3.091,8.263,5.265,16.523,5.265c10.437,0,14.059-2.993,14.059-6.813C414.981,282.385,413.291,280.598,409.717,280.019"/>
	<path fill="#FFFFFF" d="M436.463,160.445v1.564h-3.029v7.907h-1.881v-7.907h-2.993v-1.564H436.463z M446.699,169.917l-0.349-5.571
		c-0.035-0.731-0.035-1.601-0.069-2.647h-0.104c-0.245,0.835-0.523,1.949-0.802,2.82l-1.705,5.257h-1.95l-1.671-5.396
		c-0.174-0.696-0.487-1.847-0.696-2.682h-0.104c0,0.869-0.034,1.81-0.07,2.647l-0.347,5.571h-1.812l0.697-9.472h2.854l1.602,4.63
		c0.244,0.732,0.416,1.426,0.627,2.403h0.069c0.209-0.835,0.452-1.671,0.626-2.333l1.637-4.7h2.75l0.696,9.472H446.699z"/>
</g>
</svg>
